<?xml version="1.0" encoding="UTF-8" standalone="no"?>
<!-- Created with Inkscape (http://www.inkscape.org/) -->

<svg
   version="1.1"
   id="svg2"
   xml:space="preserve"
   width="245.65523"
   height="245.1019"
   viewBox="0 0 245.65522 245.1019"
   sodipodi:docname="open_oereb.svg"
   inkscape:version="1.1 (1:1.1+202105261517+ce6663b3b7)"
   xmlns:inkscape="http://www.inkscape.org/namespaces/inkscape"
   xmlns:sodipodi="http://sodipodi.sourceforge.net/DTD/sodipodi-0.dtd"
   xmlns="http://www.w3.org/2000/svg"
   xmlns:svg="http://www.w3.org/2000/svg"><defs
     id="defs6" /><sodipodi:namedview
     id="namedview4"
     pagecolor="#ffffff"
     bordercolor="#666666"
     borderopacity="1.0"
     inkscape:pageshadow="2"
     inkscape:pageopacity="0.0"
     inkscape:pagecheckerboard="0"
     showgrid="false"
     fit-margin-top="0"
     fit-margin-left="0"
     fit-margin-right="0"
     fit-margin-bottom="0"
     inkscape:zoom="1.2904517"
     inkscape:cx="143.74812"
     inkscape:cy="218.9156"
     inkscape:window-width="1848"
     inkscape:window-height="1016"
     inkscape:window-x="72"
     inkscape:window-y="1107"
     inkscape:window-maximized="1"
     inkscape:current-layer="g8" /><g
     id="g8"
     inkscape:groupmode="layer"
     inkscape:label="ink_ext_XXXXXX"
     transform="matrix(1.3333333,0,0,-1.3333333,175.29789,167.7097)"><g
       id="g14179"
       transform="translate(-268.49497,23.842772)"><g
         id="g8973"
         transform="translate(213.5076,-6.3735076)"><g
           id="g4636"
           transform="matrix(17.020848,0,0,17.020848,-222.73388,-1223.9658)"><circle
             style="fill:#ed1c24;fill-opacity:1;stroke-width:2.83465"
             id="path200"
             cx="14.004504"
             cy="-72.873314"
             r="5.243361"
             transform="scale(1,-1)" /><circle
             style="fill:#ed1c24;fill-opacity:1;stroke:#ffffff;stroke-width:1.48206;stroke-miterlimit:4;stroke-dasharray:none;stroke-opacity:1"
             id="path4428"
             cx="14.004504"
             cy="-72.873314"
             r="3.3382947"
             transform="scale(1,-1)" /></g></g><g
         id="g14169"
         transform="translate(-39.127119,43.902476)"><path
           id="path4672"
           style="fill:none;stroke:#ed1c24;stroke-width:12;stroke-miterlimit:4;stroke-dasharray:none;stroke-opacity:1"
           d="m 234.7473,-113.43658 c -10.30333,4.35795 -19.58208,10.66399 -27.37446,18.456375 -7.79239,7.792387 -14.09843,17.071135 -18.45639,27.374466 -4.35793,10.303349 -6.76778,21.63128 -6.76778,33.522068 0,47.563152 38.55755,86.120702 86.1207,86.120702 47.56315,0 86.12072,-38.55755 86.12072,-86.120702 0,-11.890788 -2.40985,-23.218737 -6.7678,-33.522068 -4.35794,-10.303331 -10.66398,-19.582079 -18.45637,-27.374466 -7.7924,-7.792385 -17.07114,-14.098425 -27.37448,-18.456375"
           sodipodi:nodetypes="csssssssc" /><path
           id="path4672-7"
           style="fill:#ffffff;fill-opacity:1;stroke:#ffffff;stroke-width:11.19;stroke-miterlimit:4;stroke-dasharray:none;stroke-opacity:1"
           d="m 268.36875,-2.826472 c -17.10885,0 -30.9724,-13.863578 -30.9724,-30.972445 0,-4.277212 0.87498,-8.355432 2.44253,-12.061623 1.56757,-3.706191 3.81958,-7.042725 6.62257,-9.845713 2.80293,-2.802987 6.13953,-5.08018 9.84576,-6.647748 l -21.55485,-51.066749 c 10.30335,-4.35794 21.65013,-6.77365 33.54084,-6.77365 11.89084,0 23.21236,2.41571 33.51572,6.77365 l -21.3785,51.066749 c 3.70624,1.567568 7.04271,3.844761 9.8457,6.647748 2.80297,2.802988 5.0802,6.139522 6.6478,9.845713 1.56756,3.706191 2.44251,7.784411 2.44251,12.061623 0,17.108867 -13.88882,30.972445 -30.99768,30.972445 z" /><path
           id="path4672-3"
           style="fill:none;stroke:#ed1c24;stroke-width:12;stroke-linecap:square;stroke-miterlimit:4;stroke-dasharray:none;stroke-opacity:1"
           d="m 234.7473,-113.43658 21.55991,51.082579 c -3.70619,1.567568 -7.04384,3.835925 -9.84683,6.638912 -2.80299,2.802988 -5.07134,6.14064 -6.63891,9.846831 -1.56757,3.706191 -2.43443,7.780955 -2.43443,12.058167 0,17.108868 13.86947,30.978342 30.97834,30.978342 17.10887,0 30.97834,-13.869474 30.97834,-30.978342 0,-4.277212 -0.8669,-8.351976 -2.43443,-12.058167 -1.56757,-3.706191 -3.83593,-7.043843 -6.63891,-9.846831 -2.80299,-2.802987 -6.14064,-5.071344 -9.84683,-6.638912 l 21.36789,-51.082579"
           sodipodi:nodetypes="csssssssc" /></g></g></g></svg>
